<?xml version="1.0" encoding="UTF-8" standalone="no"?><svg width="936" height="48" viewBox="0 0 936 48" fill="none" xmlns="http://www.w3.org/2000/svg">
<path d="M9.26836 30.8788C9.81654 28.8333 11.9191 26.7307 13.9647 26.1825L26.7173 22.7649C28.7628 22.2167 29.9767 23.4306 29.4285 25.4761L26.0109 38.2287C25.4627 40.2742 23.3601 42.3768 21.3146 42.925L8.56195 46.3426C6.51644 46.8908 5.30261 45.6769 5.85079 43.6314L9.26836 30.8788Z" fill="#9E77ED"/>
<path d="M4.15591 25.7662C4.70408 23.7207 6.80668 21.6181 8.8522 21.0699L21.6049 17.6524C23.6504 17.1042 24.8642 18.318 24.316 20.3635L20.8985 33.1162C20.3503 35.1617 18.2477 37.2643 16.2022 37.8125L3.4495 41.23C1.40399 41.7782 0.190153 40.5644 0.73833 38.5189L4.15591 25.7662Z" fill="#6941C6"/>
<path d="M41.278 36.9494H45.6647V38.6667H39.15V25.6934H41.278V36.9494Z" fill="#101828"/>
<path d="M46.735 33.4774C46.735 32.4445 46.9465 31.5298 47.3696 30.7334C47.8052 29.9369 48.3901 29.3209 49.1243 28.8854C49.871 28.4374 50.6923 28.2134 51.5883 28.2134C52.3972 28.2134 53.1003 28.3751 53.6976 28.6987C54.3074 29.0098 54.7927 29.4018 55.1536 29.8747V28.3814H57.3003V38.6667H55.1536V37.136C54.7927 37.6214 54.3012 38.0258 53.679 38.3494C53.0567 38.6729 52.3474 38.8347 51.551 38.8347C50.6674 38.8347 49.8585 38.6107 49.1243 38.1627C48.3901 37.7022 47.8052 37.0676 47.3696 36.2587C46.9465 35.4374 46.735 34.5102 46.735 33.4774ZM55.1536 33.5147C55.1536 32.8054 55.0043 32.1894 54.7056 31.6667C54.4194 31.144 54.0398 30.7458 53.567 30.472C53.0941 30.1982 52.5838 30.0614 52.0363 30.0614C51.4887 30.0614 50.9785 30.1982 50.5056 30.472C50.0327 30.7334 49.647 31.1254 49.3483 31.648C49.0621 32.1582 48.919 32.768 48.919 33.4774C48.919 34.1867 49.0621 34.8089 49.3483 35.344C49.647 35.8791 50.0327 36.2898 50.5056 36.576C50.991 36.8498 51.5012 36.9867 52.0363 36.9867C52.5838 36.9867 53.0941 36.8498 53.567 36.576C54.0398 36.3022 54.4194 35.904 54.7056 35.3814C55.0043 34.8462 55.1536 34.224 55.1536 33.5147Z" fill="#101828"/>
<path d="M69.354 28.3814L63.0447 43.5014H60.842L62.9327 38.4987L58.882 28.3814H61.2527L64.146 36.2214L67.1513 28.3814H69.354Z" fill="#101828"/>
<path d="M80.3866 33.272C80.3866 33.6578 80.3617 34.0062 80.3119 34.3174H72.4532C72.5155 35.1387 72.8204 35.7982 73.3679 36.296C73.9155 36.7938 74.5875 37.0427 75.3839 37.0427C76.5288 37.0427 77.3377 36.5636 77.8106 35.6054H80.1066C79.7955 36.5511 79.2292 37.3289 78.4079 37.9387C77.599 38.536 76.591 38.8347 75.3839 38.8347C74.4008 38.8347 73.5172 38.6169 72.7332 38.1814C71.9617 37.7334 71.3519 37.1111 70.9039 36.3147C70.4684 35.5058 70.2506 34.5725 70.2506 33.5147C70.2506 32.4569 70.4621 31.5298 70.8852 30.7334C71.3208 29.9245 71.9244 29.3022 72.6959 28.8667C73.4799 28.4311 74.3759 28.2134 75.3839 28.2134C76.3546 28.2134 77.2195 28.4249 77.9786 28.848C78.7377 29.2711 79.3288 29.8685 79.7519 30.64C80.175 31.3991 80.3866 32.2765 80.3866 33.272ZM78.1652 32.6C78.1528 31.816 77.8728 31.1876 77.3252 30.7147C76.7777 30.2418 76.0995 30.0054 75.2906 30.0054C74.5564 30.0054 73.9279 30.2418 73.4052 30.7147C72.8826 31.1751 72.5715 31.8036 72.4719 32.6H78.1652Z" fill="#101828"/>
<path d="M84.6087 29.8747C84.9199 29.352 85.3305 28.9476 85.8407 28.6614C86.3634 28.3627 86.9794 28.2134 87.6887 28.2134V30.416H87.1474C86.3136 30.416 85.679 30.6276 85.2434 31.0507C84.8203 31.4738 84.6087 32.208 84.6087 33.2534V38.6667H82.4807V28.3814H84.6087V29.8747Z" fill="#101828"/>
<path d="M93.3781 38.8347C92.5692 38.8347 91.8413 38.6916 91.1941 38.4054C90.5595 38.1067 90.0555 37.7085 89.6821 37.2107C89.3088 36.7005 89.1097 36.1342 89.0848 35.512H91.2875C91.3248 35.9476 91.5301 36.3147 91.9035 36.6134C92.2892 36.8996 92.7684 37.0427 93.3408 37.0427C93.9381 37.0427 94.3986 36.9307 94.7221 36.7067C95.0581 36.4702 95.2261 36.1716 95.2261 35.8107C95.2261 35.4249 95.0395 35.1387 94.6661 34.952C94.3053 34.7654 93.7266 34.56 92.9301 34.336C92.1586 34.1245 91.5301 33.9191 91.0448 33.72C90.5595 33.5209 90.1364 33.216 89.7755 32.8054C89.427 32.3947 89.2528 31.8534 89.2528 31.1814C89.2528 30.6338 89.4146 30.136 89.7381 29.688C90.0617 29.2276 90.5221 28.8667 91.1195 28.6054C91.7293 28.344 92.4261 28.2134 93.2101 28.2134C94.3799 28.2134 95.3195 28.512 96.0288 29.1094C96.7506 29.6942 97.1364 30.4969 97.1861 31.5174H95.0581C95.0208 31.0569 94.8341 30.6898 94.4981 30.416C94.1621 30.1422 93.7079 30.0054 93.1355 30.0054C92.5755 30.0054 92.1461 30.1111 91.8475 30.3227C91.5488 30.5342 91.3995 30.8142 91.3995 31.1627C91.3995 31.4365 91.499 31.6667 91.6981 31.8534C91.8972 32.04 92.1399 32.1894 92.4261 32.3014C92.7124 32.4009 93.1355 32.5316 93.6955 32.6934C94.4421 32.8925 95.0519 33.0978 95.5248 33.3094C96.0101 33.5085 96.427 33.8071 96.7755 34.2054C97.1239 34.6036 97.3044 35.1325 97.3168 35.792C97.3168 36.3769 97.155 36.8996 96.8315 37.36C96.5079 37.8205 96.0475 38.1814 95.4501 38.4427C94.8652 38.704 94.1746 38.8347 93.3781 38.8347Z" fill="#101828"/>
<rect x="161.75" y="24" width="7.99999" height="7.99999" fill="#039855"/>
<rect x="185.75" y="32" width="8" height="7.99999" transform="rotate(180 185.75 32)" fill="#027A48"/>
<path d="M169.75 24L177.75 16V24L169.75 32V24Z" fill="#A6F4C5"/>
<path d="M177.75 31.9999L169.75 39.9999L169.75 31.9999L177.75 24L177.75 31.9999Z" fill="#6CE9A6"/>
<path d="M161.75 24L177.75 8V16L169.75 24H161.75Z" fill="#32D583"/>
<path d="M185.75 32L169.75 48L169.75 40L177.75 32L185.75 32Z" fill="#12B76A"/>
<path d="M203.173 36.5667C201.913 36.5667 200.692 36.3878 199.51 36.03C198.343 35.6722 197.418 35.1978 196.733 34.6067L197.783 32.25C198.452 32.7789 199.269 33.2145 200.233 33.5567C201.213 33.8833 202.193 34.0467 203.173 34.0467C204.387 34.0467 205.289 33.8522 205.88 33.4633C206.487 33.0745 206.79 32.5611 206.79 31.9233C206.79 31.4567 206.619 31.0756 206.277 30.78C205.95 30.4689 205.53 30.2278 205.017 30.0567C204.503 29.8856 203.803 29.6911 202.917 29.4733C201.672 29.1778 200.661 28.8822 199.883 28.5867C199.121 28.2911 198.46 27.8322 197.9 27.21C197.356 26.5722 197.083 25.7167 197.083 24.6433C197.083 23.7411 197.324 22.9245 197.807 22.1933C198.304 21.4467 199.043 20.8556 200.023 20.42C201.019 19.9845 202.232 19.7667 203.663 19.7667C204.659 19.7667 205.639 19.8911 206.603 20.14C207.568 20.3889 208.4 20.7467 209.1 21.2133L208.143 23.57C207.428 23.15 206.681 22.8311 205.903 22.6133C205.126 22.3956 204.371 22.2867 203.64 22.2867C202.442 22.2867 201.548 22.4889 200.957 22.8933C200.381 23.2978 200.093 23.8345 200.093 24.5033C200.093 24.97 200.257 25.3511 200.583 25.6467C200.926 25.9422 201.353 26.1756 201.867 26.3467C202.38 26.5178 203.08 26.7122 203.967 26.93C205.18 27.21 206.176 27.5056 206.953 27.8167C207.731 28.1122 208.392 28.5711 208.937 29.1933C209.497 29.8156 209.777 30.6556 209.777 31.7133C209.777 32.6156 209.528 33.4322 209.03 34.1633C208.548 34.8945 207.809 35.4778 206.813 35.9133C205.818 36.3489 204.604 36.5667 203.173 36.5667Z" fill="#101828"/>
<path d="M212.505 23.8733H215.421V36.3333H212.505V23.8733ZM213.975 21.82C213.446 21.82 213.002 21.6567 212.645 21.33C212.287 20.9878 212.108 20.5678 212.108 20.07C212.108 19.5722 212.287 19.16 212.645 18.8333C213.002 18.4911 213.446 18.32 213.975 18.32C214.503 18.32 214.947 18.4833 215.305 18.81C215.662 19.1211 215.841 19.5178 215.841 20C215.841 20.5133 215.662 20.9489 215.305 21.3067C214.962 21.6489 214.519 21.82 213.975 21.82Z" fill="#101828"/>
<path d="M223.099 36.4967C222.088 36.4967 221.1 36.3645 220.136 36.1C219.172 35.8356 218.402 35.5011 217.826 35.0967L218.946 32.88C219.506 33.2533 220.175 33.5567 220.953 33.79C221.746 34.0078 222.524 34.1167 223.286 34.1167C225.028 34.1167 225.899 33.6578 225.899 32.74C225.899 32.3045 225.674 32.0011 225.223 31.83C224.787 31.6589 224.079 31.4956 223.099 31.34C222.073 31.1845 221.233 31.0056 220.579 30.8033C219.942 30.6011 219.382 30.2511 218.899 29.7533C218.433 29.24 218.199 28.5322 218.199 27.63C218.199 26.4478 218.689 25.5067 219.669 24.8067C220.665 24.0911 222.003 23.7333 223.683 23.7333C224.538 23.7333 225.394 23.8345 226.249 24.0367C227.105 24.2233 227.805 24.48 228.349 24.8067L227.229 27.0233C226.172 26.4011 224.982 26.09 223.659 26.09C222.804 26.09 222.15 26.2222 221.699 26.4867C221.264 26.7356 221.046 27.07 221.046 27.49C221.046 27.9567 221.279 28.2911 221.746 28.4933C222.228 28.68 222.967 28.8589 223.963 29.03C224.958 29.1856 225.775 29.3645 226.413 29.5667C227.05 29.7689 227.595 30.1111 228.046 30.5933C228.513 31.0756 228.746 31.76 228.746 32.6467C228.746 33.8133 228.24 34.7467 227.229 35.4467C226.218 36.1467 224.842 36.4967 223.099 36.4967Z" fill="#101828"/>
<path d="M242.697 23.8733L236.863 37.3367C236.319 38.69 235.658 39.6389 234.88 40.1833C234.102 40.7433 233.161 41.0233 232.057 41.0233C231.434 41.0233 230.82 40.9222 230.213 40.72C229.607 40.5178 229.109 40.2378 228.72 39.88L229.887 37.7333C230.167 37.9978 230.493 38.2078 230.867 38.3633C231.255 38.5189 231.644 38.5967 232.033 38.5967C232.547 38.5967 232.967 38.4645 233.293 38.2C233.635 37.9356 233.947 37.4922 234.227 36.87L234.437 36.38L229 23.8733H232.033L235.953 33.09L239.897 23.8733H242.697Z" fill="#101828"/>
<path d="M251.426 23.7333C252.639 23.7333 253.721 23.9978 254.669 24.5267C255.634 25.0556 256.388 25.8022 256.933 26.7667C257.477 27.7311 257.749 28.8433 257.749 30.1033C257.749 31.3633 257.477 32.4833 256.933 33.4633C256.388 34.4278 255.634 35.1745 254.669 35.7033C253.721 36.2322 252.639 36.4967 251.426 36.4967C249.746 36.4967 248.416 35.9367 247.436 34.8167V40.86H244.519V23.8733H247.296V25.5067C247.778 24.9156 248.369 24.4722 249.069 24.1767C249.785 23.8811 250.571 23.7333 251.426 23.7333ZM251.099 34C252.173 34 253.052 33.6422 253.736 32.9267C254.436 32.2111 254.786 31.27 254.786 30.1033C254.786 28.9367 254.436 27.9956 253.736 27.28C253.052 26.5645 252.173 26.2067 251.099 26.2067C250.399 26.2067 249.769 26.37 249.209 26.6967C248.649 27.0078 248.206 27.4589 247.879 28.05C247.553 28.6411 247.389 29.3256 247.389 30.1033C247.389 30.8811 247.553 31.5656 247.879 32.1567C248.206 32.7478 248.649 33.2067 249.209 33.5333C249.769 33.8445 250.399 34 251.099 34Z" fill="#101828"/>
<path d="M267.586 23.7333C269.157 23.7333 270.417 24.1922 271.366 25.11C272.314 26.0278 272.789 27.3889 272.789 29.1933V36.3333H269.872V29.5667C269.872 28.4778 269.616 27.6611 269.102 27.1167C268.589 26.5567 267.858 26.2767 266.909 26.2767C265.836 26.2767 264.988 26.6033 264.366 27.2567C263.743 27.8945 263.432 28.82 263.432 30.0333V36.3333H260.516V19.02H263.432V25.32C263.914 24.8067 264.506 24.4178 265.206 24.1533C265.921 23.8733 266.714 23.7333 267.586 23.7333Z" fill="#101828"/>
<path d="M288.552 23.8733V36.3333H285.776V34.7467C285.309 35.3067 284.726 35.7422 284.026 36.0533C283.326 36.3489 282.571 36.4967 281.762 36.4967C280.098 36.4967 278.783 36.0378 277.819 35.12C276.87 34.1867 276.396 32.81 276.396 30.99V23.8733H279.312V30.5933C279.312 31.7133 279.561 32.5533 280.059 33.1133C280.572 33.6578 281.296 33.93 282.229 33.93C283.271 33.93 284.096 33.6111 284.702 32.9733C285.324 32.32 285.636 31.3867 285.636 30.1733V23.8733H288.552Z" fill="#101828"/>
<path d="M296.221 36.4967C295.21 36.4967 294.222 36.3645 293.258 36.1C292.293 35.8356 291.523 35.5011 290.948 35.0967L292.068 32.88C292.628 33.2533 293.297 33.5567 294.074 33.79C294.868 34.0078 295.645 34.1167 296.408 34.1167C298.15 34.1167 299.021 33.6578 299.021 32.74C299.021 32.3045 298.795 32.0011 298.344 31.83C297.909 31.6589 297.201 31.4956 296.221 31.34C295.194 31.1845 294.354 31.0056 293.701 30.8033C293.063 30.6011 292.503 30.2511 292.021 29.7533C291.554 29.24 291.321 28.5322 291.321 27.63C291.321 26.4478 291.811 25.5067 292.791 24.8067C293.787 24.0911 295.124 23.7333 296.804 23.7333C297.66 23.7333 298.515 23.8345 299.371 24.0367C300.227 24.2233 300.927 24.48 301.471 24.8067L300.351 27.0233C299.293 26.4011 298.103 26.09 296.781 26.09C295.925 26.09 295.272 26.2222 294.821 26.4867C294.385 26.7356 294.168 27.07 294.168 27.49C294.168 27.9567 294.401 28.2911 294.868 28.4933C295.35 28.68 296.089 28.8589 297.084 29.03C298.08 29.1856 298.897 29.3645 299.534 29.5667C300.172 29.7689 300.717 30.1111 301.168 30.5933C301.634 31.0756 301.868 31.76 301.868 32.6467C301.868 33.8133 301.362 34.7467 300.351 35.4467C299.34 36.1467 297.963 36.4967 296.221 36.4967Z" fill="#101828"/>
<path d="M382.298 33.4286C390.976 33.4286 398.012 26.393 398.012 17.7143C398.012 16.7307 397.922 15.7682 397.749 14.8347C396.815 14.6618 395.853 14.5714 394.869 14.5714C386.19 14.5714 379.155 21.6069 379.155 30.2857C379.155 31.2693 379.245 32.2318 379.418 33.1653C380.352 33.3382 381.314 33.4286 382.298 33.4286Z" fill="#175CD3"/>
<path fill-rule="evenodd" clip-rule="evenodd" d="M379.418 33.1653C372.114 31.8127 366.583 25.4095 366.583 17.7143C366.583 9.03553 373.619 2 382.298 2C389.993 2 396.396 7.53118 397.749 14.8347C396.815 14.6618 395.853 14.5714 394.869 14.5714C386.19 14.5714 379.155 21.607 379.155 30.2857C379.155 31.2693 379.245 32.2318 379.418 33.1653Z" fill="#1570EF"/>
<path fill-rule="evenodd" clip-rule="evenodd" d="M382.298 33.4285C390.976 33.4285 398.012 26.393 398.012 17.7142C398.012 16.7306 397.922 15.7681 397.749 14.8346C405.052 16.1872 410.583 22.5905 410.583 30.2856C410.583 38.9644 403.548 45.9999 394.869 45.9999C387.174 45.9999 380.771 40.4687 379.418 33.1652C380.352 33.3381 381.314 33.4285 382.298 33.4285Z" fill="#2E90FA"/>
<path d="M440.811 28.904C440.251 30.7146 439.271 32.068 437.871 32.964C436.471 33.8413 434.838 34.28 432.971 34.28C431.142 34.28 429.555 33.8973 428.211 33.132C426.886 32.3666 425.859 31.2746 425.131 29.856C424.422 28.4373 424.067 26.7386 424.067 24.76C424.067 22.7813 424.431 21.0826 425.159 19.664C425.887 18.2453 426.914 17.1533 428.239 16.388C429.565 15.6226 431.123 15.24 432.915 15.24C434.801 15.24 436.415 15.6413 437.759 16.444C439.122 17.228 440.055 18.4226 440.559 20.028L437.059 21.512C436.742 20.392 436.257 19.5986 435.603 19.132C434.95 18.6466 434.11 18.404 433.083 18.404C431.553 18.404 430.33 18.9546 429.415 20.056C428.519 21.1386 428.071 22.7066 428.071 24.76C428.071 26.7946 428.501 28.3626 429.359 29.464C430.218 30.5653 431.459 31.116 433.083 31.116C434.091 31.116 434.959 30.8453 435.687 30.304C436.434 29.7627 436.957 28.9413 437.255 27.84L440.811 28.904Z" fill="#101828"/>
<path d="M445.645 17.984C444.058 17.984 443.265 17.3026 443.265 15.94C443.265 14.5586 444.058 13.868 445.645 13.868C447.231 13.868 448.025 14.5586 448.025 15.94C448.025 17.3026 447.231 17.984 445.645 17.984ZM447.549 20V34H443.713V20H447.549Z" fill="#101828"/>
<path d="M451.615 34V20H454.947L455.199 22.744C455.554 21.792 456.086 21.0546 456.795 20.532C457.523 19.9906 458.438 19.72 459.539 19.72C460.192 19.72 460.696 19.8226 461.051 20.028L460.603 23.248C460.416 23.192 460.183 23.1453 459.903 23.108C459.642 23.052 459.296 23.024 458.867 23.024C458.288 23.024 457.738 23.164 457.215 23.444C456.711 23.7053 456.291 24.116 455.955 24.676C455.619 25.2173 455.451 25.908 455.451 26.748V34H451.615Z" fill="#101828"/>
<path d="M469.51 19.72C471.377 19.72 472.823 20.1213 473.85 20.924C474.895 21.7266 475.586 22.6973 475.922 23.836L472.338 25.124C471.965 23.4253 471.041 22.576 469.566 22.576C468.502 22.576 467.671 22.9493 467.074 23.696C466.495 24.4426 466.206 25.5533 466.206 27.028C466.206 28.5213 466.505 29.632 467.102 30.36C467.718 31.0693 468.549 31.424 469.594 31.424C471.218 31.424 472.189 30.5933 472.506 28.932L475.978 30.052C475.661 31.3027 474.951 32.32 473.85 33.104C472.767 33.888 471.358 34.28 469.622 34.28C468.166 34.28 466.887 33.9907 465.786 33.412C464.703 32.8333 463.863 32.0026 463.266 30.92C462.669 29.8373 462.37 28.5306 462.37 27C462.37 25.4693 462.669 24.1626 463.266 23.08C463.882 21.9973 464.722 21.1666 465.786 20.588C466.869 20.0093 468.11 19.72 469.51 19.72Z" fill="#101828"/>
<path d="M485.343 19.72C486.743 19.72 487.984 20.0093 489.067 20.588C490.149 21.1666 490.989 21.9973 491.587 23.08C492.203 24.1626 492.511 25.4693 492.511 27C492.511 28.5306 492.203 29.8373 491.587 30.92C490.989 32.0026 490.149 32.8333 489.067 33.412C487.984 33.9907 486.743 34.28 485.343 34.28C483.924 34.28 482.673 33.9907 481.591 33.412C480.527 32.8333 479.687 32.0026 479.071 30.92C478.473 29.8373 478.175 28.5306 478.175 27C478.175 25.4693 478.473 24.1626 479.071 23.08C479.687 21.9973 480.527 21.1666 481.591 20.588C482.673 20.0093 483.924 19.72 485.343 19.72ZM485.343 22.576C484.297 22.576 483.476 22.9493 482.879 23.696C482.3 24.424 482.011 25.5253 482.011 27C482.011 28.4746 482.3 29.5853 482.879 30.332C483.476 31.06 484.297 31.424 485.343 31.424C486.369 31.424 487.172 31.06 487.751 30.332C488.348 29.5853 488.647 28.4746 488.647 27C488.647 25.5253 488.348 24.424 487.751 23.696C487.172 22.9493 486.369 22.576 485.343 22.576Z" fill="#101828"/>
<path d="M502.105 19.72C503.505 19.72 504.746 20.0093 505.829 20.588C506.911 21.1666 507.751 21.9973 508.349 23.08C508.965 24.1626 509.273 25.4693 509.273 27C509.273 28.5306 508.965 29.8373 508.349 30.92C507.751 32.0026 506.911 32.8333 505.829 33.412C504.746 33.9907 503.505 34.28 502.105 34.28C500.686 34.28 499.435 33.9907 498.353 33.412C497.289 32.8333 496.449 32.0026 495.833 30.92C495.235 29.8373 494.937 28.5306 494.937 27C494.937 25.4693 495.235 24.1626 495.833 23.08C496.449 21.9973 497.289 21.1666 498.353 20.588C499.435 20.0093 500.686 19.72 502.105 19.72ZM502.105 22.576C501.059 22.576 500.238 22.9493 499.641 23.696C499.062 24.424 498.773 25.5253 498.773 27C498.773 28.4746 499.062 29.5853 499.641 30.332C500.238 31.06 501.059 31.424 502.105 31.424C503.131 31.424 503.934 31.06 504.513 30.332C505.11 29.5853 505.409 28.4746 505.409 27C505.409 25.5253 505.11 24.424 504.513 23.696C503.934 22.9493 503.131 22.576 502.105 22.576Z" fill="#101828"/>
<path d="M516.262 13.868V29.688C516.262 30.3413 516.374 30.7986 516.598 31.06C516.822 31.3213 517.196 31.452 517.718 31.452C518.036 31.452 518.297 31.4333 518.502 31.396C518.708 31.3587 518.969 31.284 519.286 31.172L518.95 33.692C518.633 33.8786 518.232 34.0186 517.746 34.112C517.28 34.224 516.813 34.28 516.346 34.28C514.984 34.28 513.985 33.9533 513.35 33.3C512.734 32.628 512.426 31.564 512.426 30.108V13.868H516.262Z" fill="#101828"/>
<path d="M527.92 34.28C525.717 34.28 523.953 33.6453 522.628 32.376C521.302 31.088 520.64 29.296 520.64 27C520.64 25.4693 520.938 24.1626 521.536 23.08C522.133 21.9973 522.964 21.1666 524.028 20.588C525.11 20.0093 526.342 19.72 527.724 19.72C529.142 19.72 530.346 20.0093 531.336 20.588C532.325 21.148 533.081 21.9226 533.604 22.912C534.126 23.8826 534.388 24.9933 534.388 26.244C534.388 26.6173 534.378 26.972 534.36 27.308C534.341 27.644 534.313 27.9426 534.276 28.204H524.392C524.541 29.2866 524.914 30.0986 525.512 30.64C526.128 31.1626 526.921 31.424 527.892 31.424C528.713 31.424 529.376 31.2653 529.88 30.948C530.384 30.6306 530.776 30.192 531.056 29.632L534.108 30.808C533.66 31.9093 532.876 32.768 531.756 33.384C530.636 33.9813 529.357 34.28 527.92 34.28ZM527.696 22.548C525.885 22.548 524.793 23.5466 524.42 25.544H530.72C530.608 24.5733 530.29 23.836 529.768 23.332C529.264 22.8093 528.573 22.548 527.696 22.548Z" fill="#101828"/>
<path d="M543.238 34.28C541.82 34.28 540.522 34.028 539.346 33.524C538.189 33.02 537.246 32.3106 536.518 31.396L538.73 29.156C539.178 29.828 539.776 30.3787 540.522 30.808C541.269 31.2373 542.156 31.452 543.182 31.452C543.91 31.452 544.489 31.3493 544.918 31.144C545.366 30.92 545.59 30.5746 545.59 30.108C545.59 29.8093 545.488 29.5573 545.282 29.352C545.077 29.128 544.666 28.9506 544.05 28.82L541.586 28.316C539.962 27.98 538.805 27.476 538.114 26.804C537.442 26.1133 537.106 25.2266 537.106 24.144C537.106 23.3786 537.33 22.66 537.778 21.988C538.245 21.316 538.936 20.7746 539.85 20.364C540.765 19.9346 541.904 19.72 543.266 19.72C546.104 19.72 548.138 20.588 549.37 22.324L547.074 24.564C546.664 23.9106 546.122 23.416 545.45 23.08C544.797 22.7253 544.106 22.548 543.378 22.548C541.736 22.548 540.914 23.0053 540.914 23.92C540.914 24.2186 541.045 24.48 541.306 24.704C541.568 24.9093 542.044 25.0866 542.734 25.236L545.59 25.824C546.972 26.104 547.961 26.58 548.558 27.252C549.156 27.9053 549.454 28.6986 549.454 29.632C549.454 30.976 548.913 32.0867 547.83 32.964C546.766 33.8413 545.236 34.28 543.238 34.28Z" fill="#101828"/>
<path d="M631.917 9.66669C621.791 9.66669 613.583 17.8748 613.583 28C613.583 38.1252 621.791 46.3334 631.917 46.3334C641.001 46.3334 648.542 39.7264 649.996 31.0556H649.865C648.508 36.3271 643.723 40.2222 638.028 40.2222C631.278 40.2222 625.806 34.7502 625.806 28C625.806 21.2499 631.278 15.7778 638.028 15.7778C643.723 15.7778 648.508 19.6729 649.865 24.9445H649.996C648.542 16.2737 641.001 9.66669 631.917 9.66669Z" fill="#A4BCFD"/>
<path d="M613.583 28C613.583 17.8748 621.791 9.66669 631.917 9.66669C641.001 9.66669 648.542 16.2737 649.996 24.9445H637.643C636.286 19.6729 631.501 15.7778 625.806 15.7778C619.055 15.7778 613.583 21.2499 613.583 28Z" fill="#3538CD"/>
<path d="M613.583 28C613.583 38.1253 621.791 46.3334 631.917 46.3334C641.001 46.3334 648.542 39.7264 649.996 31.0556H637.643C636.286 36.3271 631.501 40.2223 625.806 40.2223C619.055 40.2223 613.583 34.7502 613.583 28Z" fill="#3538CD"/>
<path d="M676.449 25.0893C675.927 21.3192 673.027 19.1317 669.265 19.1317C664.832 19.1317 661.493 22.3632 661.493 27.8485C661.493 33.3255 664.791 36.5654 669.265 36.5654C673.3 36.5654 675.977 33.9553 676.449 30.7155L673.35 30.6989C672.961 32.6875 671.337 33.8061 669.307 33.8061C666.556 33.8061 664.584 31.7429 664.584 27.8485C664.584 24.0204 666.539 21.8909 669.315 21.8909C671.378 21.8909 672.994 23.0592 673.35 25.0893H676.449Z" fill="#101828"/>
<path d="M682.794 36.5902C684.791 36.5902 685.984 35.6539 686.531 34.585H686.63V36.3334H689.514V27.8154C689.514 24.4513 686.771 23.4404 684.344 23.4404C681.667 23.4404 679.612 24.6335 678.949 26.9536L681.75 27.3514C682.048 26.4813 682.893 25.7356 684.36 25.7356C685.752 25.7356 686.514 26.4482 686.514 27.6994V27.7491C686.514 28.6108 685.611 28.6523 683.366 28.8925C680.897 29.1577 678.535 29.8951 678.535 32.7621C678.535 35.2645 680.366 36.5902 682.794 36.5902ZM683.573 34.3862C682.322 34.3862 681.427 33.8144 681.427 32.7124C681.427 31.5606 682.429 31.08 683.772 30.8895C684.559 30.7817 686.133 30.5829 686.523 30.268V31.7678C686.523 33.1847 685.379 34.3862 683.573 34.3862Z" fill="#101828"/>
<path d="M698.885 23.6061H696.375V20.5568H693.375V23.6061H691.569V25.9262H693.375V33.0024C693.359 35.397 695.099 36.5737 697.353 36.5074C698.206 36.4825 698.794 36.3168 699.117 36.2091L698.612 33.8641C698.446 33.9056 698.107 33.9801 697.734 33.9801C696.98 33.9801 696.375 33.715 696.375 32.5052V25.9262H698.885V23.6061Z" fill="#101828"/>
<path d="M705.056 36.5902C707.053 36.5902 708.247 35.6539 708.793 34.585H708.893V36.3334H711.776V27.8154C711.776 24.4513 709.034 23.4404 706.606 23.4404C703.93 23.4404 701.875 24.6335 701.212 26.9536L704.012 27.3514C704.311 26.4813 705.156 25.7356 706.622 25.7356C708.015 25.7356 708.777 26.4482 708.777 27.6994V27.7491C708.777 28.6108 707.874 28.6523 705.628 28.8925C703.159 29.1577 700.797 29.8951 700.797 32.7621C700.797 35.2645 702.629 36.5902 705.056 36.5902ZM705.835 34.3862C704.584 34.3862 703.689 33.8144 703.689 32.7124C703.689 31.5606 704.692 31.08 706.034 30.8895C706.821 30.7817 708.396 30.5829 708.785 30.268V31.7678C708.785 33.1847 707.642 34.3862 705.835 34.3862Z" fill="#101828"/>
<path d="M717.792 19.3637H714.792V36.3334H717.792V19.3637Z" fill="#101828"/>
<path d="M726.428 36.5819C730.157 36.5819 732.527 33.9553 732.527 30.0194C732.527 26.0753 730.157 23.4404 726.428 23.4404C722.699 23.4404 720.33 26.0753 720.33 30.0194C720.33 33.9553 722.699 36.5819 726.428 36.5819ZM726.445 34.179C724.381 34.179 723.371 32.3395 723.371 30.0112C723.371 27.6828 724.381 25.8184 726.445 25.8184C728.475 25.8184 729.486 27.6828 729.486 30.0112C729.486 32.3395 728.475 34.179 726.445 34.179Z" fill="#101828"/>
<path d="M740.607 41.3712C744.046 41.3712 746.582 39.7969 746.582 36.5405V23.6061H743.624V25.7107H743.458C743.002 24.791 742.049 23.4404 739.804 23.4404C736.862 23.4404 734.55 25.7439 734.55 29.9283C734.55 34.0796 736.862 36.1511 739.795 36.1511C741.975 36.1511 742.994 34.9827 743.458 34.0464H743.607V36.4576C743.607 38.3303 742.364 39.1009 740.657 39.1009C738.851 39.1009 738.055 38.2474 737.691 37.5017L734.99 38.1563C735.536 39.9378 737.368 41.3712 740.607 41.3712ZM740.632 33.7978C738.652 33.7978 737.608 32.2567 737.608 29.9117C737.608 27.5999 738.635 25.9013 740.632 25.9013C742.563 25.9013 743.624 27.5005 743.624 29.9117C743.624 32.3395 742.546 33.7978 740.632 33.7978Z" fill="#101828"/>
<path fill-rule="evenodd" clip-rule="evenodd" d="M825.583 40.3111C830.173 40.3111 833.894 36.5901 833.894 32C833.894 27.4099 830.173 23.6889 825.583 23.6889C820.993 23.6889 817.272 27.4099 817.272 32C817.272 36.5901 820.993 40.3111 825.583 40.3111ZM825.583 46.6666C833.684 46.6666 840.25 40.1002 840.25 32C840.25 23.8998 833.684 17.3333 825.583 17.3333C817.483 17.3333 810.917 23.8998 810.917 32C810.917 40.1002 817.483 46.6666 825.583 46.6666Z" fill="#6938EF"/>
<path d="M825.751 32.3211C827.279 30.7937 829.755 30.7937 831.282 32.3211L838.888 39.9264C840.415 41.4538 840.415 43.9302 838.888 45.4576C837.36 46.985 834.884 46.985 833.356 45.4576L825.751 37.8523C824.224 36.3249 824.224 33.8485 825.751 32.3211Z" fill="#F670C7"/>
<path d="M827.887 39.9878L832.717 44.818C835.034 43.5259 836.964 41.6239 838.29 39.3292L833.5 34.5385C832.658 37.1648 830.546 39.2224 827.887 39.9878Z" fill="#6519BA"/>
<path d="M863.93 40.0667C863.507 40.5893 862.99 40.9876 862.381 41.2613C861.783 41.5351 861.124 41.672 860.402 41.672C859.431 41.672 858.554 41.4605 857.77 41.0373C856.986 40.6267 856.09 39.8925 855.082 38.8347C853.9 38.6853 852.842 38.3058 851.909 37.696C850.988 37.0862 850.266 36.3022 849.743 35.344C849.233 34.3733 848.978 33.3031 848.978 32.1333C848.978 30.8516 849.283 29.7005 849.893 28.68C850.515 27.6471 851.367 26.8382 852.45 26.2533C853.545 25.6685 854.771 25.376 856.127 25.376C857.484 25.376 858.703 25.6685 859.786 26.2533C860.869 26.8382 861.721 27.6471 862.343 28.68C862.966 29.7005 863.277 30.8516 863.277 32.1333C863.277 33.6516 862.847 34.9831 861.989 36.128C861.142 37.2729 860.016 38.0693 858.61 38.5173C858.921 38.8409 859.22 39.0711 859.506 39.208C859.805 39.3573 860.122 39.432 860.458 39.432C861.267 39.432 861.976 39.1085 862.586 38.4613L863.93 40.0667ZM852.039 32.1333C852.039 32.9422 852.214 33.664 852.562 34.2987C852.923 34.9333 853.414 35.4311 854.037 35.792C854.659 36.1405 855.356 36.3147 856.127 36.3147C856.899 36.3147 857.596 36.1405 858.218 35.792C858.84 35.4311 859.326 34.9333 859.674 34.2987C860.035 33.664 860.215 32.9422 860.215 32.1333C860.215 31.3245 860.035 30.6027 859.674 29.968C859.326 29.3333 858.84 28.8418 858.218 28.4933C857.596 28.1325 856.899 27.952 856.127 27.952C855.356 27.952 854.659 28.1325 854.037 28.4933C853.414 28.8418 852.923 29.3333 852.562 29.968C852.214 30.6027 852.039 31.3245 852.039 32.1333Z" fill="#101828"/>
<path d="M875.461 28.624V38.6667H872.699V37.472C872.313 37.9076 871.852 38.2436 871.317 38.48C870.782 38.704 870.204 38.816 869.581 38.816C868.262 38.816 867.217 38.4365 866.445 37.6773C865.674 36.9182 865.288 35.792 865.288 34.2987V28.624H868.2V33.8693C868.2 35.4871 868.878 36.296 870.235 36.296C870.932 36.296 871.492 36.072 871.915 35.624C872.338 35.1636 872.549 34.4853 872.549 33.5893V28.624H875.461Z" fill="#101828"/>
<path d="M882.938 38.816C881.88 38.816 880.928 38.5982 880.082 38.1627C879.248 37.7147 878.595 37.0987 878.122 36.3147C877.649 35.5307 877.412 34.6409 877.412 33.6453C877.412 32.6498 877.649 31.76 878.122 30.976C878.595 30.192 879.248 29.5822 880.082 29.1467C880.928 28.6987 881.88 28.4747 882.938 28.4747C883.996 28.4747 884.941 28.6987 885.775 29.1467C886.609 29.5822 887.262 30.192 887.735 30.976C888.208 31.76 888.444 32.6498 888.444 33.6453C888.444 34.6409 888.208 35.5307 887.735 36.3147C887.262 37.0987 886.609 37.7147 885.775 38.1627C884.941 38.5982 883.996 38.816 882.938 38.816ZM882.938 36.4267C883.684 36.4267 884.294 36.1778 884.767 35.68C885.252 35.1698 885.495 34.4916 885.495 33.6453C885.495 32.7991 885.252 32.1271 884.767 31.6293C884.294 31.1191 883.684 30.864 882.938 30.864C882.191 30.864 881.575 31.1191 881.09 31.6293C880.604 32.1271 880.362 32.7991 880.362 33.6453C880.362 34.4916 880.604 35.1698 881.09 35.68C881.575 36.1778 882.191 36.4267 882.938 36.4267Z" fill="#101828"/>
<path d="M896.868 38.1813C896.582 38.3929 896.227 38.5547 895.804 38.6667C895.394 38.7662 894.958 38.816 894.498 38.816C893.303 38.816 892.376 38.5111 891.716 37.9013C891.069 37.2916 890.746 36.3956 890.746 35.2133V31.088H889.196V28.848H890.746V26.4027H893.658V28.848H896.159V31.088H893.658V35.176C893.658 35.5991 893.763 35.9289 893.975 36.1653C894.199 36.3893 894.51 36.5013 894.908 36.5013C895.369 36.5013 895.761 36.3769 896.084 36.128L896.868 38.1813Z" fill="#101828"/>
<path d="M898.503 28.624H901.415V38.6667H898.503V28.624ZM899.959 27.224C899.424 27.224 898.988 27.0685 898.652 26.7573C898.316 26.4462 898.148 26.0605 898.148 25.6C898.148 25.1396 898.316 24.7538 898.652 24.4427C898.988 24.1316 899.424 23.976 899.959 23.976C900.494 23.976 900.93 24.1253 901.266 24.424C901.602 24.7227 901.77 25.096 901.77 25.544C901.77 26.0293 901.602 26.4338 901.266 26.7573C900.93 27.0685 900.494 27.224 899.959 27.224Z" fill="#101828"/>
<path d="M913.955 33.6827C913.955 33.72 913.936 33.9813 913.899 34.4667H906.301C906.438 35.0889 906.762 35.5805 907.272 35.9413C907.782 36.3022 908.417 36.4827 909.176 36.4827C909.699 36.4827 910.159 36.408 910.557 36.2587C910.968 36.0969 911.348 35.848 911.696 35.512L913.245 37.192C912.3 38.2747 910.918 38.816 909.101 38.816C907.969 38.816 906.967 38.5982 906.096 38.1627C905.225 37.7147 904.553 37.0987 904.08 36.3147C903.607 35.5307 903.371 34.6409 903.371 33.6453C903.371 32.6622 903.601 31.7787 904.061 30.9947C904.534 30.1982 905.175 29.5822 905.984 29.1467C906.805 28.6987 907.72 28.4747 908.728 28.4747C909.711 28.4747 910.601 28.6862 911.397 29.1093C912.194 29.5325 912.816 30.1422 913.264 30.9387C913.725 31.7227 913.955 32.6373 913.955 33.6827ZM908.747 30.6773C908.087 30.6773 907.533 30.864 907.085 31.2373C906.637 31.6107 906.364 32.1209 906.264 32.768H911.211C911.111 32.1333 910.837 31.6293 910.389 31.256C909.941 30.8702 909.394 30.6773 908.747 30.6773Z" fill="#101828"/>
<path d="M921.997 28.4747C923.242 28.4747 924.244 28.848 925.003 29.5947C925.774 30.3413 926.16 31.4489 926.16 32.9173V38.6667H923.248V33.3653C923.248 32.5689 923.074 31.9778 922.726 31.592C922.377 31.1938 921.873 30.9947 921.214 30.9947C920.479 30.9947 919.894 31.2249 919.459 31.6853C919.023 32.1333 918.806 32.8053 918.806 33.7013V38.6667H915.894V28.624H918.675V29.8C919.061 29.3769 919.54 29.0533 920.112 28.8293C920.685 28.5929 921.313 28.4747 921.997 28.4747Z" fill="#101828"/>
<path d="M935.277 38.1813C934.991 38.3929 934.636 38.5547 934.213 38.6667C933.802 38.7662 933.367 38.816 932.906 38.816C931.712 38.816 930.785 38.5111 930.125 37.9013C929.478 37.2916 929.154 36.3956 929.154 35.2133V31.088H927.605V28.848H929.154V26.4027H932.066V28.848H934.568V31.088H932.066V35.176C932.066 35.5991 932.172 35.9289 932.384 36.1653C932.608 36.3893 932.919 36.5013 933.317 36.5013C933.778 36.5013 934.17 36.3769 934.493 36.128L935.277 38.1813Z" fill="#101828"/>
</svg>
